<?xml version="1.0" standalone="no"?>
<!DOCTYPE svg PUBLIC "-//W3C//DTD SVG 20010904//EN"
 "http://www.w3.org/TR/2001/REC-SVG-20010904/DTD/svg10.dtd">
<svg version="1.0" xmlns="http://www.w3.org/2000/svg"
 width="360.000000pt" height="360.000000pt" viewBox="0 0 360.000000 360.000000"
 preserveAspectRatio="xMidYMid meet">
<metadata>
Created by potrace 1.14, written by Peter Selinger 2001-2017
</metadata>
<g transform="translate(0.000000,360.000000) scale(0.100000,-0.100000)"
fill="#000000" stroke="none">
<path d="M1726 3439 c-39 -9 -99 -47 -123 -79 -41 -52 -44 -74 -99 -773 -30
-381 -54 -699 -54 -708 0 -11 -214 -164 -582 -417 -321 -220 -590 -408 -599
-418 -50 -57 -70 -152 -47 -219 8 -23 20 -39 27 -37 9 2 1380 940 1397 956 1
1 29 357 63 791 34 435 65 818 68 853 3 34 2 62 -3 61 -5 -1 -27 -5 -48 -10z"/>
<path d="M1820 3411 c0 -38 115 -1513 126 -1612 l6 -56 101 -70 c56 -39 371
-255 700 -482 329 -226 599 -411 601 -411 14 0 28 70 24 128 -7 124 54 76
-1004 797 -88 61 -176 121 -193 135 l-33 25 -19 235 c-10 129 -34 444 -54 700
-20 256 -40 479 -45 495 -13 40 -64 102 -100 120 -15 8 -46 19 -69 24 l-41 9
0 -37z"/>
<path d="M1395 3396 c-43 -19 -102 -88 -114 -133 -5 -21 -31 -308 -56 -638
-29 -369 -52 -604 -59 -611 -6 -6 -231 -163 -501 -349 -269 -185 -502 -348
-517 -363 -57 -53 -74 -164 -36 -237 l14 -26 594 411 c327 225 609 422 625
438 l31 27 58 725 c31 399 59 735 62 748 4 20 1 22 -33 22 -21 -1 -51 -7 -68
-14z"/>
<path d="M2100 3398 c0 -53 123 -1494 128 -1499 7 -7 1208 -839 1229 -852 20
-12 43 46 43 108 0 58 -16 105 -47 141 -13 14 -903 635 -1030 719 -2 1 -19
197 -38 436 -59 735 -66 801 -81 838 -19 46 -50 78 -96 102 -42 22 -108 26
-108 7z"/>
<path d="M1088 3300 c-43 -23 -81 -70 -96 -120 -6 -19 -27 -240 -47 -490 -19
-250 -38 -470 -42 -488 -7 -29 -49 -61 -418 -315 -400 -275 -411 -283 -437
-336 -30 -58 -34 -95 -18 -151 20 -69 19 -69 141 17 63 43 295 204 516 357
222 153 405 282 409 287 5 9 104 1172 104 1232 0 25 -3 27 -37 27 -21 -1 -55
-10 -75 -20z"/>
<path d="M2393 3288 c3 -18 27 -302 54 -631 l47 -598 510 -352 c280 -193 515
-355 522 -360 9 -5 19 3 30 24 24 47 16 155 -15 201 -15 21 -108 93 -248 189
-492 340 -595 412 -598 423 -3 6 -22 232 -44 502 -28 353 -43 500 -54 520 -35
69 -104 114 -173 114 -35 0 -36 -1 -31 -32z"/>
<path d="M1715 1444 c-105 -51 -577 -276 -700 -334 -44 -21 -132 -62 -195 -93
-63 -30 -212 -100 -330 -157 -118 -56 -219 -105 -223 -109 -13 -13 40 -68 86
-90 29 -14 63 -21 103 -21 57 0 82 11 701 306 l641 306 414 -197 c227 -109
512 -245 633 -303 246 -118 294 -130 380 -98 47 19 121 84 108 96 -4 4 -82 42
-173 85 -91 43 -221 105 -290 138 -167 80 -320 152 -405 192 -38 18 -146 69
-239 114 -93 45 -170 81 -171 81 -2 0 -59 27 -127 60 -67 33 -127 60 -133 59
-5 0 -41 -16 -80 -35z"/>
<path d="M1730 1136 c-36 -17 -110 -52 -165 -78 -55 -26 -163 -77 -240 -114
-77 -36 -171 -81 -210 -99 -63 -29 -186 -87 -563 -266 -138 -65 -138 -65 -68
-127 42 -37 113 -54 176 -42 25 5 119 44 210 88 178 86 279 134 520 247 85 40
212 100 282 133 l127 61 83 -41 c46 -22 115 -55 153 -73 80 -37 593 -280 765
-363 126 -60 173 -70 239 -52 41 11 117 71 123 97 3 12 -99 63 -597 298 -268
126 -389 184 -580 275 -205 98 -180 93 -255 56z"/>
<path d="M1230 585 c-305 -145 -561 -267 -569 -272 -24 -15 64 -98 119 -113
82 -22 83 -21 520 187 85 41 233 111 327 155 l173 81 257 -123 c142 -68 328
-157 413 -197 263 -127 285 -132 376 -89 43 20 94 69 94 90 0 7 -93 52 -525
256 -137 65 -326 154 -420 199 -93 45 -178 84 -190 86 -12 3 -233 -97 -575
-260z"/>
</g>
</svg>
